<svg data-v-423bf9ae="" xmlns="http://www.w3.org/2000/svg" viewBox="0 0 337 90" class="iconLeft"><!----><!----><!----><g data-v-423bf9ae="" id="472348bf-12db-41dc-b4c0-e0405a90de20" fill="white" transform="matrix(5.988024248455585,0,0,5.988024248455585,127.61172491994157,-9.49101865937186)"><path d="M4.37 14.11L4.37 14.11Q3.26 14.11 2.42 13.69L2.42 13.69L2.42 13.69Q1.57 13.26 1.10 12.47L1.10 12.47L1.10 12.47Q0.63 11.69 0.63 10.67L0.63 10.67L0.63 4.45L0.63 4.45Q0.63 4.34 0.70 4.27L0.70 4.27L0.70 4.27Q0.77 4.20 0.88 4.20L0.88 4.20L2.70 4.20L2.70 4.20Q2.81 4.20 2.88 4.27L2.88 4.27L2.88 4.27Q2.95 4.34 2.95 4.45L2.95 4.45L2.95 10.67L2.95 10.67Q2.95 11.33 3.34 11.72L3.34 11.72L3.34 11.72Q3.72 12.12 4.37 12.12L4.37 12.12L4.37 12.12Q5.00 12.12 5.38 11.72L5.38 11.72L5.38 11.72Q5.77 11.33 5.77 10.67L5.77 10.67L5.77 4.45L5.77 4.45Q5.77 4.34 5.84 4.27L5.84 4.27L5.84 4.27Q5.91 4.20 6.02 4.20L6.02 4.20L7.84 4.20L7.84 4.20Q7.95 4.20 8.02 4.27L8.02 4.27L8.02 4.27Q8.09 4.34 8.09 4.45L8.09 4.45L8.09 10.67L8.09 10.67Q8.09 11.69 7.63 12.47L7.63 12.47L7.63 12.47Q7.17 13.26 6.32 13.69L6.32 13.69L6.32 13.69Q5.47 14.11 4.37 14.11L4.37 14.11ZM13.58 4.20L13.58 4.20Q14.53 4.20 15.27 4.59L15.27 4.59L15.27 4.59Q16.00 4.98 16.40 5.69L16.40 5.69L16.40 5.69Q16.80 6.40 16.80 7.32L16.80 7.32L16.80 7.32Q16.80 8.23 16.39 8.93L16.39 8.93L16.39 8.93Q15.97 9.63 15.22 10.01L15.22 10.01L15.22 10.01Q14.46 10.39 13.47 10.39L13.47 10.39L11.79 10.39L11.79 10.39Q11.69 10.39 11.69 10.49L11.69 10.49L11.69 13.75L11.69 13.75Q11.69 13.86 11.62 13.93L11.62 13.93L11.62 13.93Q11.55 14 11.44 14L11.44 14L9.62 14L9.62 14Q9.51 14 9.44 13.93L9.44 13.93L9.44 13.93Q9.37 13.86 9.37 13.75L9.37 13.75L9.37 4.45L9.37 4.45Q9.37 4.34 9.44 4.27L9.44 4.27L9.44 4.27Q9.51 4.20 9.62 4.20L9.62 4.20L13.58 4.20ZM13.20 8.54L13.20 8.54Q13.78 8.54 14.13 8.22L14.13 8.22L14.13 8.22Q14.49 7.90 14.49 7.38L14.49 7.38L14.49 7.38Q14.49 6.85 14.13 6.52L14.13 6.52L14.13 6.52Q13.78 6.19 13.20 6.19L13.20 6.19L11.79 6.19L11.79 6.19Q11.69 6.19 11.69 6.29L11.69 6.29L11.69 8.44L11.69 8.44Q11.69 8.54 11.79 8.54L11.79 8.54L13.20 8.54ZM18.05 14L18.05 14Q17.93 14 17.86 13.93L17.86 13.93L17.86 13.93Q17.79 13.86 17.79 13.75L17.79 13.75L17.79 4.45L17.79 4.45Q17.79 4.34 17.86 4.27L17.86 4.27L17.86 4.27Q17.93 4.20 18.05 4.20L18.05 4.20L19.85 4.20L19.85 4.20Q20.05 4.20 20.15 4.37L20.15 4.37L22.01 7.38L22.01 7.38Q22.08 7.48 22.15 7.38L22.15 7.38L24.02 4.37L24.02 4.37Q24.12 4.20 24.32 4.20L24.32 4.20L26.12 4.20L26.12 4.20Q26.24 4.20 26.31 4.27L26.31 4.27L26.31 4.27Q26.38 4.34 26.38 4.45L26.38 4.45L26.38 13.75L26.38 13.75Q26.38 13.86 26.31 13.93L26.31 13.93L26.31 13.93Q26.24 14 26.12 14L26.12 14L24.30 14L24.30 14Q24.19 14 24.12 13.93L24.12 13.93L24.12 13.93Q24.05 13.86 24.05 13.75L24.05 13.75L24.05 8.27L24.05 8.27Q24.05 8.20 24.01 8.19L24.01 8.19L24.01 8.19Q23.97 8.18 23.94 8.25L23.94 8.25L22.81 10.09L22.81 10.09Q22.71 10.26 22.51 10.26L22.51 10.26L21.66 10.26L21.66 10.26Q21.46 10.26 21.36 10.09L21.36 10.09L20.23 8.25L20.23 8.25Q20.20 8.18 20.16 8.19L20.16 8.19L20.16 8.19Q20.12 8.20 20.12 8.27L20.12 8.27L20.12 13.75L20.12 13.75Q20.12 13.86 20.05 13.93L20.05 13.93L20.05 13.93Q19.98 14 19.87 14L19.87 14L18.05 14ZM31.26 14.11L31.26 14.11Q30.14 14.11 29.30 13.74L29.30 13.74L29.30 13.74Q28.45 13.37 27.99 12.68L27.99 12.68L27.99 12.68Q27.52 11.98 27.52 11.07L27.52 11.07L27.52 10.89L27.52 10.89Q27.52 10.78 27.59 10.71L27.59 10.71L27.59 10.71Q27.66 10.64 27.78 10.64L27.78 10.64L29.55 10.64L29.55 10.64Q29.67 10.64 29.74 10.69L29.74 10.69L29.74 10.69Q29.81 10.74 29.81 10.81L29.81 10.81L29.81 10.98L29.81 10.98Q29.81 11.42 30.26 11.77L30.26 11.77L30.26 11.77Q30.72 12.12 31.43 12.12L31.43 12.12L31.43 12.12Q32.05 12.12 32.34 11.86L32.34 11.86L32.34 11.86Q32.63 11.59 32.63 11.24L32.63 11.24L32.63 11.24Q32.63 10.85 32.29 10.64L32.29 10.64L32.29 10.64Q31.95 10.43 31.07 10.15L31.07 10.15L30.76 10.05L30.76 10.05Q29.86 9.76 29.19 9.41L29.19 9.41L29.19 9.41Q28.52 9.07 28.04 8.46L28.04 8.46L28.04 8.46Q27.57 7.85 27.57 6.96L27.57 6.96L27.57 6.96Q27.57 6.09 28.02 5.44L28.02 5.44L28.02 5.44Q28.48 4.79 29.28 4.44L29.28 4.44L29.28 4.44Q30.09 4.09 31.11 4.09L31.11 4.09L31.11 4.09Q32.19 4.09 33.05 4.48L33.05 4.48L33.05 4.48Q33.91 4.87 34.40 5.59L34.40 5.59L34.40 5.59Q34.89 6.30 34.89 7.22L34.89 7.22L34.89 7.34L34.89 7.34Q34.89 7.45 34.82 7.52L34.82 7.52L34.82 7.52Q34.75 7.59 34.64 7.59L34.64 7.59L32.86 7.59L32.86 7.59Q32.75 7.59 32.68 7.55L32.68 7.55L32.68 7.55Q32.61 7.52 32.61 7.45L32.61 7.45L32.61 7.32L32.61 7.32Q32.61 6.83 32.17 6.45L32.17 6.45L32.17 6.45Q31.74 6.08 31.01 6.08L31.01 6.08L31.01 6.08Q30.46 6.08 30.16 6.30L30.16 6.30L30.16 6.30Q29.85 6.52 29.85 6.93L29.85 6.93L29.85 6.93Q29.85 7.24 30.04 7.44L30.04 7.44L30.04 7.44Q30.24 7.64 30.65 7.82L30.65 7.82L30.65 7.82Q31.07 7.99 31.92 8.27L31.92 8.27L31.92 8.27Q32.90 8.61 33.45 8.86L33.45 8.86L33.45 8.86Q33.99 9.11 34.48 9.68L34.48 9.68L34.48 9.68Q34.96 10.25 34.96 11.17L34.96 11.17L34.96 11.17Q34.96 12.05 34.50 12.72L34.50 12.72L34.50 12.72Q34.03 13.38 33.19 13.75L33.19 13.75L33.19 13.75Q32.35 14.11 31.26 14.11L31.26 14.11Z"></path></g><!----><g data-v-423bf9ae="" id="fff8efc2-3c9e-49c1-a121-5f6067682eaf" transform="matrix(1.129943481178193,0,0,1.129943481178193,-0.7830480164532432,-11.31892628438915)" stroke="none" fill="white"><path d="M36.5 81.1c7.6 0 13.8-6.2 13.8-13.8 0-7.6-6.2-13.8-13.8-13.8-7.6 0-13.8 6.2-13.8 13.8.1 7.7 6.2 13.8 13.8 13.8zm-4.8-8.3c.1-.5.2-.9.4-1.4.2-.5.3-.6.8-.3.8.4 1.7.7 2.6.8.6.1 1.2 0 1.7-.2 1-.4 1.2-1.6.3-2.3-.3-.2-.6-.4-1-.6-.9-.4-1.8-.7-2.7-1.2-1.4-.8-2.2-1.9-2.1-3.6.1-1.9 1.2-3 2.9-3.7.7-.3.7-.2.7-1v-.8c0-.6.1-.7.7-.7h.5c1.2 0 1.2 0 1.2 1.2 0 .8 0 .8.8 1 .6.1 1.2.3 1.8.5.3.1.4.4.3.7-.1.5-.3 1-.5 1.5s-.3.5-.8.3c-.9-.4-1.9-.6-2.9-.6-.3 0-.5.1-.8.2-.9.4-1 1.4-.3 2 .4.3.8.5 1.3.7.8.3 1.6.6 2.3 1 2.4 1.3 3 4.3 1.3 6.3-.6.7-1.4 1.2-2.3 1.5-.4.1-.6.3-.6.7V76c0 .4-.2.6-.5.6h-1.3c-.4 0-.6-.2-.6-.6v-.9c0-.7 0-.7-.7-.8-.8-.1-1.6-.3-2.3-.7-.3 0-.3-.2-.2-.8zm-19-4.7c0-2.1 1.7-3.8 3.8-3.8 2.1 0 3.8 1.7 3.8 3.8 0 2.1-1.7 3.8-3.8 3.8-2.1 0-3.8-1.7-3.8-3.8zm40.1 0c0-2.1 1.7-3.8 3.8-3.8 2.1 0 3.8 1.7 3.8 3.8 0 2.1-1.7 3.8-3.8 3.8-2.1 0-3.8-1.7-3.8-3.8zm44.6-4.6L78.1 82.8v-7.2l7.3-7.3-7.3-7.3v-9.7c0-.9-.1-1.7-.3-2.5l13.6 13.6 2.4-2.4c.6-.6.6-1.6 0-2.1L51.7 15.7c-.6-.6-1.6-.6-2.1 0l-2.4 2.4 22.3 22.3c-.8-.2-1.6-.3-2.5-.3h-9.7l-16-16-14.2 14.1c-.5.5-.6 1.3-.2 1.9h-5.3c-.2-2 .4-4 1.9-5.5L46 12.1c2.6-2.6 6.8-2.6 9.3 0l42.1 42.1c2.5 2.5 2.5 6.7 0 9.3zM7 89.8h60c3.5 0 6.3-2.8 6.3-6.3V51.2c0-3.5-2.8-6.3-6.3-6.3H7c-3.5 0-6.3 2.8-6.3 6.3v32.3c0 3.5 2.8 6.3 6.3 6.3zM6.1 58c.5.1 1 .2 1.6.2 3.5 0 6.4-2.8 6.4-6.4 0-.5-.1-1.1-.2-1.6h46.7c-.1.4-.1.8-.1 1.2 0 3.5 2.8 6.4 6.4 6.4.4 0 .8 0 1.1-.1V77c-.4-.1-.7-.1-1.1-.1-3.5 0-6.4 2.8-6.4 6.4 0 .4 0 .8.1 1.2H14v-.8c0-3.5-2.8-6.4-6.4-6.4-.5 0-1.1.1-1.6.2V58z"></path></g><!----></svg>